# xmcd
#
# Track frame offsets:
#	150
#	1956
#	20904
#	38352
#	57802
#	79225
#	101204
#	110318
#	128947
#	145502
#	163291
#	181503
#	199281
#	214118
#	229265
#	249566
#
# Disc length: 3629 seconds
#
# Revision: 1
# Processed by: cddbd v1.5.2PL0 Copyright (c) Steve Scherf et al.
# Submitted via: audiograbber 1.83.01
#
DISCID=d60e2b10
DTITLE=504 Boyz - Hurricane Katrina We Gon' Bounce Back
DYEAR=2005
DGENRE=Rap
TTITLE0=Master P - Intro
TTITLE1=Krazy, Yogi, Halleluyah, Jazzy - Them People
TTITLE2=Halleluyah, Rowdy, Playa - D-Boys
TTITLE3=Master P, Black, Tank Dog, Yogi, Jazzy - 1, 2, 3, G's
TTITLE4=Krazy, Master P, Halleluyah - That Work
TTITLE5=Master P, Pop, Daddy-Q, Naughty, Benji - Streets Is Callin
TTITLE6=Master P - Real Talk
TTITLE7=Master P, Rowdy - Hurtin
TTITLE8=Master P, Krazy, Yogi, Halleluyah, Jazzy - We Don't Play
TTITLE9=Master P, Playa, Rowdy, Krazy, Yogi, Halleluyah, Jazzy - Jump Shob
TTITLE10=Lil' D, Rowdy, Playa - You Don't
TTITLE11=Silkk The Shocker, Halleluyah - Go Head
TTITLE12=Master P, Krazy, Yogi, Jazzy, Tank Dog, Pop - Bounce Back
TTITLE13=Master P, Krazy, Yogi, Jazzy, Tank Dog, Pop - Bounce
TTITLE14=Master P, Black, Halleluyah, Krazy, Benji - Mob Life
TTITLE15=Master P, Jazzy, Yogi, Krazy - Murder
EXTD=www.RapMusicGuide.com
EXTT0=
EXTT1=
EXTT2=
EXTT3=
EXTT4=
EXTT5=
EXTT6=
EXTT7=
EXTT8=
EXTT9=
EXTT10=
EXTT11=
EXTT12=
EXTT13=
EXTT14=
EXTT15=
PLAYORDER=
